<?xml version="1.0" encoding="UTF-8"?>
<svg xmlns="http://www.w3.org/2000/svg" xmlns:xlink="http://www.w3.org/1999/xlink" width="50pt" height="50pt" viewBox="0 0 50 50" version="1.1">
<g id="surface1">
<path style=" stroke:none;fill-rule:nonzero;fill:rgb(25.490196%,33.72549%,38.039216%);fill-opacity:1;" d="M 28.785156 39.519531 C 28.472656 39.832031 27.804688 39.910156 27.375 39.480469 C 23.425781 35.453125 17.675781 36.078125 14.898438 38.894531 C 13.0625 40.769531 12.046875 43.78125 10.714844 45.621094 C 10.011719 46.636719 9.113281 47.652344 8.132812 48.632812 C 8.132812 48.632812 6.960938 49.960938 4.808594 49.960938 C 2.152344 49.960938 0 47.808594 0 45.152344 C 0 43.078125 1.328125 41.828125 1.328125 41.828125 L 1.367188 41.789062 L 1.40625 41.746094 C 2.347656 40.808594 3.324219 39.949219 4.300781 39.246094 C 6.140625 37.914062 9.113281 36.898438 10.949219 35.019531 C 13.726562 32.207031 14.351562 26.417969 10.402344 22.429688 C 10.207031 22.234375 10.089844 21.921875 10.128906 21.6875 C 10.128906 21.410156 10.285156 21.136719 10.441406 20.980469 L 15.488281 15.898438 L 33.789062 34.394531 C 33.789062 34.394531 28.785156 39.519531 28.785156 39.519531 Z M 28.785156 39.519531 "/>
<path style=" stroke:none;fill-rule:nonzero;fill:rgb(22.745098%,30.196078%,34.117647%);fill-opacity:1;" d="M 10.480469 20.980469 C 10.324219 21.136719 10.207031 21.410156 10.167969 21.683594 C 10.167969 21.960938 10.246094 22.234375 10.441406 22.429688 C 14.390625 26.417969 13.804688 32.207031 10.988281 35.019531 C 9.152344 36.898438 6.140625 37.914062 4.339844 39.246094 C 3.363281 39.949219 2.386719 40.808594 1.445312 41.746094 L 1.367188 41.824219 C 1.839844 41.355469 0.0390625 42.84375 0.0390625 45.148438 C 0.0390625 46.480469 0.585938 47.652344 1.445312 48.554688 L 24.285156 25.753906 L 16.699219 17.070312 L 15.527344 15.898438 C 15.527344 15.898438 10.480469 20.980469 10.480469 20.980469 Z M 10.480469 20.980469 "/>
<path style=" stroke:none;fill-rule:nonzero;fill:rgb(95.686275%,94.117647%,82.745098%);fill-opacity:1;" d="M 32.8125 0.488281 L 49.550781 17.1875 C 50.097656 17.734375 50.097656 18.597656 49.550781 19.144531 L 38.71875 29.976562 C 38.167969 30.523438 37.308594 30.523438 36.761719 29.976562 L 19.984375 13.277344 C 19.4375 12.730469 19.4375 11.871094 19.984375 11.320312 L 30.855469 0.488281 C 31.363281 -0.0585938 32.265625 -0.0585938 32.8125 0.488281 Z M 32.8125 0.488281 "/>
<path style=" stroke:none;fill-rule:nonzero;fill:rgb(82.745098%,83.529412%,83.921569%);fill-opacity:1;" d="M 19.90625 11.4375 L 39.5 29.15625 L 32.34375 35.921875 L 13.179688 18.242188 Z M 19.90625 11.4375 "/>
<path style=" stroke:none;fill-rule:nonzero;fill:rgb(78.431373%,79.215686%,79.607843%);fill-opacity:1;" d="M 19.90625 11.4375 L 29.800781 20.355469 L 22.878906 27.199219 L 13.179688 18.28125 C 13.179688 18.28125 19.90625 11.4375 19.90625 11.4375 Z M 19.90625 11.4375 "/>
<path style=" stroke:none;fill-rule:nonzero;fill:rgb(74.117647%,74.901961%,75.294118%);fill-opacity:1;" d="M 27.609375 25.753906 C 26.984375 26.378906 26.984375 27.355469 27.609375 27.980469 C 28.234375 28.609375 29.214844 28.609375 29.839844 27.980469 C 30.464844 27.355469 30.464844 26.378906 29.839844 25.753906 C 29.253906 25.167969 28.234375 25.167969 27.609375 25.753906 Z M 33.398438 29.273438 C 32.773438 28.648438 31.796875 28.648438 31.167969 29.273438 C 30.542969 29.898438 30.542969 30.875 31.167969 31.5 C 31.796875 32.128906 32.773438 32.128906 33.398438 31.5 C 33.984375 30.875 33.984375 29.898438 33.398438 29.273438 Z M 33.398438 29.273438 "/>
<path style=" stroke:none;fill-rule:nonzero;fill:rgb(90.980392%,89.411765%,78.431373%);fill-opacity:1;" d="M 48.140625 15.78125 C 47.867188 15.507812 47.4375 15.507812 47.164062 15.78125 L 38.71875 24.1875 C 38.445312 24.460938 38.445312 24.890625 38.71875 25.167969 C 38.992188 25.441406 39.421875 25.441406 39.695312 25.167969 L 48.140625 16.757812 C 48.417969 16.484375 48.417969 16.054688 48.140625 15.78125 Z M 45.796875 13.433594 C 45.523438 13.160156 45.09375 13.160156 44.816406 13.433594 L 36.371094 21.84375 C 36.097656 22.117188 36.097656 22.546875 36.371094 22.820312 C 36.644531 23.09375 37.074219 23.09375 37.347656 22.820312 L 45.796875 14.410156 C 46.070312 14.136719 46.070312 13.707031 45.796875 13.433594 Z M 41.0625 8.742188 C 40.789062 8.46875 40.359375 8.46875 40.085938 8.742188 L 31.636719 17.109375 C 31.363281 17.382812 31.363281 17.8125 31.636719 18.085938 C 31.914062 18.363281 32.34375 18.363281 32.617188 18.085938 L 41.0625 9.71875 C 41.335938 9.445312 41.335938 9.015625 41.0625 8.742188 Z M 38.71875 6.394531 C 38.445312 6.121094 38.011719 6.121094 37.738281 6.394531 L 29.292969 14.761719 C 29.019531 15.039062 29.019531 15.46875 29.292969 15.742188 C 29.566406 16.015625 29.996094 16.015625 30.269531 15.742188 L 38.71875 7.371094 C 38.992188 7.097656 38.992188 6.667969 38.71875 6.394531 Z M 36.332031 4.007812 C 36.058594 3.734375 35.628906 3.734375 35.355469 4.007812 L 26.945312 12.417969 C 26.671875 12.691406 26.671875 13.121094 26.945312 13.394531 C 27.21875 13.667969 27.648438 13.667969 27.921875 13.394531 L 36.332031 5.023438 C 36.605469 4.75 36.605469 4.28125 36.332031 4.007812 Z M 33.984375 1.660156 C 33.710938 1.386719 33.28125 1.386719 33.007812 1.660156 L 24.558594 10.070312 C 24.285156 10.34375 24.285156 10.773438 24.558594 11.046875 C 24.832031 11.320312 25.265625 11.320312 25.539062 11.046875 L 33.984375 2.640625 C 34.257812 2.367188 34.257812 1.9375 33.984375 1.660156 Z M 33.984375 1.660156 "/>
<path style=" stroke:none;fill-rule:nonzero;fill:rgb(88.627451%,34.117647%,29.803922%);fill-opacity:1;" d="M 49.589844 17.148438 L 32.8125 0.449219 C 32.265625 -0.0976562 31.402344 -0.0976562 30.855469 0.449219 L 29.644531 1.660156 L 37.074219 9.015625 C 37.660156 10.109375 37.503906 11.476562 36.449219 12.417969 L 35.511719 13.511719 C 34.882812 14.058594 34.882812 14.996094 35.511719 15.546875 C 36.136719 16.09375 37.191406 16.054688 37.699219 15.46875 L 34.804688 18.28125 C 34.21875 18.832031 34.21875 19.730469 34.804688 20.277344 C 35.394531 20.824219 36.292969 20.824219 36.878906 20.277344 L 38.207031 18.949219 C 37.660156 19.496094 37.660156 20.394531 38.207031 20.941406 C 38.757812 21.488281 39.617188 21.488281 40.164062 20.941406 L 42.589844 18.398438 C 43.683594 17.265625 45.484375 17.265625 46.617188 18.398438 L 48.457031 20.199219 L 49.589844 19.066406 C 50.136719 18.597656 50.136719 17.695312 49.589844 17.148438 Z M 49.589844 17.148438 "/>
<path style=" stroke:none;fill-rule:nonzero;fill:rgb(70.588235%,70.980392%,71.372549%);fill-opacity:1;" d="M 20.414062 16.367188 C 21.039062 16.992188 21.039062 17.96875 20.414062 18.597656 C 19.789062 19.222656 18.8125 19.222656 18.183594 18.597656 C 17.558594 17.96875 17.558594 16.992188 18.183594 16.367188 C 18.8125 15.742188 19.789062 15.742188 20.414062 16.367188 Z M 23.933594 19.886719 C 24.558594 20.511719 24.558594 21.488281 23.933594 22.117188 C 23.308594 22.742188 22.332031 22.742188 21.707031 22.117188 C 21.078125 21.488281 21.078125 20.511719 21.707031 19.886719 C 22.332031 19.261719 23.347656 19.261719 23.933594 19.886719 Z M 23.933594 19.886719 "/>
<path style=" stroke:none;fill-rule:nonzero;fill:rgb(83.921569%,32.54902%,28.235294%);fill-opacity:1;" d="M 36.488281 12.378906 L 35.550781 13.472656 C 34.921875 14.019531 34.921875 14.917969 35.550781 15.507812 C 36.136719 16.015625 37.074219 16.015625 37.621094 15.546875 L 38.523438 14.683594 C 37.972656 15.234375 36.957031 15.3125 36.332031 14.761719 C 35.707031 14.214844 35.707031 13.316406 36.332031 12.730469 L 37.269531 11.632812 C 38.285156 10.734375 38.441406 9.328125 37.894531 8.269531 L 30.464844 0.957031 L 29.683594 1.742188 L 37.113281 9.054688 C 37.660156 10.109375 37.503906 11.476562 36.488281 12.378906 Z M 35.628906 19.496094 C 35.082031 18.988281 35.082031 18.125 35.550781 17.578125 L 34.84375 18.242188 C 34.257812 18.792969 34.257812 19.691406 34.84375 20.238281 C 35.433594 20.785156 36.332031 20.785156 36.917969 20.238281 L 37.699219 19.457031 C 37.113281 20.042969 36.214844 20.042969 35.628906 19.496094 Z M 38.992188 20.199219 C 38.445312 19.652344 38.445312 18.753906 38.992188 18.203125 L 38.207031 18.988281 C 37.660156 19.535156 37.660156 20.433594 38.207031 20.980469 C 38.757812 21.527344 39.617188 21.527344 40.164062 20.980469 L 40.789062 20.355469 C 40.242188 20.746094 39.5 20.667969 38.992188 20.199219 Z M 49.199219 19.457031 L 47.359375 17.695312 C 46.265625 16.5625 44.464844 16.5625 43.371094 17.695312 L 42.824219 18.242188 C 43.917969 17.34375 45.5625 17.421875 46.578125 18.441406 L 48.414062 20.199219 L 49.550781 19.066406 Z M 49.199219 19.457031 "/>
</g>
</svg>
